<?xml version="1.0" standalone="no"?>
<!DOCTYPE svg PUBLIC "-//W3C//DTD SVG 20010904//EN"
 "http://www.w3.org/TR/2001/REC-SVG-20010904/DTD/svg10.dtd">
<svg version="1.0" xmlns="http://www.w3.org/2000/svg"
 width="1123.000000pt" height="1123.000000pt" viewBox="0 0 1123.000000 1123.000000"
 preserveAspectRatio="xMidYMid meet">
<metadata>
Created by potrace 1.14, written by Peter Selinger 2001-2017
</metadata>
<g transform="translate(0.000000,1123.000000) scale(0.100000,-0.100000)"
fill="#000000" stroke="none">
<path d="M5797 10424 c-1 -2 -47 -5 -102 -8 -54 -3 -106 -8 -114 -10 -9 -3
-43 -7 -76 -11 -50 -5 -219 -35 -290 -51 -11 -3 -31 -7 -44 -10 -13 -3 -32 -9
-41 -14 -10 -5 -20 -7 -23 -4 -3 3 -12 2 -19 -2 -7 -5 -17 -9 -23 -10 -5 -1
-44 -12 -85 -25 -41 -12 -77 -23 -80 -24 -3 -1 -18 -7 -33 -13 -16 -7 -34 -12
-41 -12 -7 0 -16 -3 -20 -7 -3 -4 -12 -8 -19 -9 -46 -8 -383 -168 -492 -234
-27 -17 -57 -33 -65 -37 -8 -4 -36 -22 -62 -40 -26 -18 -52 -33 -57 -33 -5 0
-11 -3 -13 -7 -1 -5 -23 -21 -48 -38 -216 -146 -473 -382 -673 -619 -90 -107
-267 -356 -267 -376 0 -4 -3 -10 -8 -12 -12 -5 -204 -351 -200 -361 0 -1 -8
-22 -20 -47 -34 -77 -55 -125 -58 -135 -1 -5 -18 -51 -38 -102 -29 -78 -60
-172 -57 -180 0 -2 -6 -18 -15 -38 -8 -19 -14 -38 -14 -42 0 -5 -4 -21 -10
-38 -5 -16 -11 -43 -14 -60 -3 -16 -13 -59 -21 -95 -16 -69 -40 -196 -50 -270
-3 -25 -8 -58 -11 -75 -19 -135 -26 -600 -11 -740 12 -106 17 -144 23 -179 3
-17 7 -47 10 -66 6 -53 35 -203 41 -220 4 -8 7 -23 8 -32 2 -10 3 -19 5 -20 1
-2 3 -10 5 -18 9 -44 45 -172 50 -180 4 -6 8 -20 10 -33 5 -23 88 -257 105
-292 18 -38 63 -140 64 -145 2 -6 64 -127 108 -210 16 -30 40 -73 54 -95 13
-22 30 -50 36 -62 6 -13 15 -23 20 -23 4 0 8 -7 8 -15 0 -8 5 -15 10 -15 6 0
10 -5 10 -11 0 -12 140 -210 188 -266 15 -17 36 -43 47 -57 56 -72 242 -266
332 -346 53 -47 65 -58 153 -130 30 -25 57 -48 58 -52 2 -5 8 -8 13 -8 5 0 39
-22 74 -50 35 -27 69 -50 75 -50 5 0 10 -4 10 -10 0 -5 6 -10 14 -10 7 0 19
-6 25 -14 7 -8 26 -21 44 -30 42 -22 71 -39 77 -48 9 -12 370 -192 435 -217
138 -53 245 -90 245 -84 0 3 7 0 15 -7 8 -7 15 -9 15 -5 0 4 6 2 13 -4 8 -6
24 -13 38 -15 13 -3 25 -5 27 -7 1 -1 5 -2 10 -3 4 -1 57 -14 117 -29 109 -26
151 -35 190 -41 11 -2 40 -7 65 -11 25 -4 61 -9 80 -11 19 -1 35 -3 35 -4 0
-11 246 -24 425 -24 150 1 217 5 365 20 43 4 221 31 250 38 6 1 37 8 70 15 67
14 123 29 235 61 41 12 80 23 85 24 6 1 27 10 49 19 21 9 41 17 44 17 15 0
178 65 183 73 3 5 8 8 10 7 13 -5 251 108 257 122 2 5 12 8 23 8 10 0 19 5 19
10 0 6 7 10 15 10 8 0 15 4 15 9 0 5 10 11 23 15 22 6 143 80 182 112 11 9 30
21 43 27 12 5 22 14 22 19 0 4 6 8 13 8 11 0 46 27 100 74 9 9 20 16 23 16 3
0 16 9 28 19 11 11 57 50 101 87 114 97 341 328 402 409 5 6 27 33 49 60 41
49 56 71 152 210 75 108 154 243 225 380 40 79 126 268 131 290 2 6 7 21 13
35 24 59 55 146 59 164 7 35 27 91 37 104 5 6 7 12 4 12 -3 0 1 24 9 53 8 28
17 60 19 70 2 10 6 26 9 35 5 16 15 61 20 92 5 24 18 93 23 115 2 11 6 31 8
45 3 31 14 105 21 144 16 95 26 275 25 456 -1 213 -6 281 -37 510 -9 67 -35
205 -49 260 -8 30 -16 66 -19 80 -3 14 -12 49 -20 78 -8 28 -12 52 -10 52 3 0
-3 11 -12 25 -9 14 -13 25 -10 25 3 0 0 15 -8 34 -8 19 -12 37 -8 40 3 3 1 6
-4 6 -5 0 -10 8 -11 18 -2 28 -90 245 -155 382 -59 125 -162 311 -225 405 -19
28 -39 58 -46 69 -24 36 -143 194 -182 241 -22 26 -53 64 -70 84 -39 46 -304
309 -342 338 -15 12 -37 30 -48 40 -12 10 -41 34 -65 53 -25 19 -46 38 -48 42
-2 4 -8 8 -13 8 -8 0 -71 45 -122 86 -9 8 -19 14 -21 14 -3 0 -31 18 -64 39
-32 22 -75 49 -96 60 -20 12 -53 31 -73 43 -55 31 -237 121 -313 153 -36 15
-83 35 -105 45 -33 14 -138 52 -155 55 -3 1 -39 12 -80 25 -41 13 -78 25 -82
26 -5 1 -11 3 -15 4 -5 1 -11 2 -15 1 -4 0 -20 4 -35 11 -15 6 -39 12 -53 13
-14 1 -25 3 -25 4 0 6 -174 41 -230 47 -16 1 -41 5 -55 8 -29 5 -108 15 -195
22 -64 6 -414 12 -418 8z"/>
</g>
</svg>
